<svg width="30" height="24" viewBox="0 0 30 24" fill="none" xmlns="http://www.w3.org/2000/svg">
<path d="M30 2.84106C28.8766 3.33097 27.685 3.65254 26.4649 3.79508C27.7358 3.04525 28.7116 1.85786 29.1711 0.443094C27.963 1.14884 26.6412 1.64609 25.2628 1.91335C24.14 0.735876 22.5405 0 20.7702 0C17.3711 0 14.6152 2.71278 14.6152 6.05866C14.6152 6.53359 14.6696 6.99595 14.7745 7.43951C9.6593 7.18676 5.12414 4.77471 2.0884 1.10906C1.55871 2.0039 1.2552 3.04479 1.2552 4.155C1.2552 6.25708 2.34188 8.11148 3.99328 9.19804C3.01588 9.16791 2.05998 8.90804 1.20539 8.44013C1.20504 8.46551 1.20504 8.49089 1.20504 8.51639C1.20504 11.4519 3.3266 13.9008 6.14215 14.4574C5.2358 14.7 4.28511 14.7355 3.3627 14.5612C4.14586 16.9683 6.41895 18.7199 9.11215 18.7689C7.0057 20.3939 4.35176 21.3625 1.46824 21.3625C0.971367 21.3625 0.481523 21.3338 0 21.2779C2.72379 22.997 5.95898 24 9.43477 24C20.7559 24 26.9466 14.7677 26.9466 6.76131C26.9466 6.49852 26.9407 6.23724 26.9288 5.97745C28.1337 5.11997 29.1737 4.05789 30 2.84106Z" fill="#55ACEE"/>
</svg>
