<svg width="34" height="50" viewBox="0 0 34 50" fill="none" xmlns="http://www.w3.org/2000/svg">
<path d="M26.9199 20.6085H7.08643V27.1611H26.9199V20.6085Z" fill="#C0D9E6"/>
<path d="M21.9365 34.0192L19.5314 33.0524C19.3337 32.9698 19.1608 32.6393 19.1196 32.4658C19.0702 32.2592 19.0784 32.003 19.1855 31.8047C19.3255 31.5568 19.6385 31.4329 19.935 31.342C20.4045 31.2015 20.9316 31.1354 21.3105 30.8379C21.5246 30.6727 21.7388 30.4413 21.8541 30.2182C21.9777 29.9703 21.8871 29.7472 21.8871 29.4993V27.1692H12.1186V29.4993C12.1186 29.739 12.028 29.9703 12.1515 30.2182C12.2668 30.4413 12.481 30.6727 12.6951 30.8379C13.074 31.1354 13.5929 31.2015 14.0706 31.342C14.3671 31.4329 14.6801 31.5568 14.8202 31.8047C14.9272 32.003 14.9355 32.2592 14.886 32.4658C14.8449 32.6393 14.6801 32.9698 14.4742 33.0524C14.4742 33.0524 12.0774 34.0192 12.0692 34.0192C11.5667 34.2175 11.4432 34.8042 11.6079 35.1925C11.6903 35.3826 11.8468 35.6305 12.0445 35.7627C12.2751 35.9279 12.654 35.994 12.934 36.0849C13.2305 36.1841 13.527 36.2915 13.8235 36.3907C14.0459 36.465 14.2683 36.5477 14.4989 36.622C14.8449 36.7294 15.0343 36.8038 15.2073 37.1013C15.3885 37.407 15.4461 37.7541 15.4132 38.0928C15.3638 38.5886 14.9849 38.9687 14.4825 39.2331C13.8894 39.5389 13.1399 39.8115 12.6622 40.2412C12.2668 40.5883 12.1927 41.208 12.4975 41.6046C12.9175 42.15 14.0047 42.183 14.6225 42.5218C14.9602 42.7036 15.2402 43.0424 15.2896 43.3811C15.3308 43.6456 15.2896 43.8852 15.1414 44.1248C14.9108 44.5297 14.3754 44.6619 13.9224 44.8272C13.2717 45.0668 12.5139 45.1577 12.4398 45.8518C12.3904 46.3723 12.8599 46.7772 13.3129 47.0829C13.7329 47.3722 14.1777 47.6283 14.6307 47.8762C15.0755 48.1158 15.512 48.3554 15.9568 48.5868C16.2204 48.7273 16.5498 48.9091 16.8875 48.9752V49C16.8875 49 16.9699 48.9917 17.0028 48.9834C17.044 48.9834 17.0852 49 17.1181 49V48.9752C17.4476 48.9091 17.777 48.719 18.0489 48.5868C18.4936 48.3554 18.9302 48.1158 19.3749 47.8762C19.8362 47.6283 20.2727 47.3639 20.6928 47.0829C21.1458 46.7772 21.6152 46.3806 21.5658 45.8518C21.4917 45.1577 20.7339 45.0668 20.0833 44.8272C19.6303 44.6619 19.0866 44.5297 18.8643 44.1248C18.7242 43.8769 18.6748 43.6456 18.716 43.3811C18.7654 43.0424 19.0455 42.7118 19.3832 42.5218C20.0009 42.183 21.0963 42.15 21.5082 41.6046C21.8129 41.208 21.7388 40.5883 21.3434 40.2412C20.8657 39.8198 20.108 39.5389 19.5232 39.2331C19.0208 38.9687 18.6419 38.5886 18.5925 38.0928C18.5595 37.7541 18.6172 37.407 18.7984 37.1013C18.9713 36.8121 19.1608 36.7377 19.5067 36.622C19.7373 36.5477 19.9597 36.465 20.1821 36.3907C20.4786 36.2915 20.7751 36.1841 21.0716 36.0849C21.3434 35.994 21.7306 35.9279 21.9612 35.7627C22.1506 35.6305 22.3153 35.3826 22.3977 35.1925C22.5624 34.8042 22.4307 34.2175 21.9365 34.0192Z" fill="#92B6C7"/>
<g style="mix-blend-mode:multiply">
<path d="M17.1346 27.161H12.1186V29.4912C12.1186 29.7308 12.028 29.9622 12.1515 30.21C12.2668 30.4331 12.481 30.6645 12.6951 30.8298C13.074 31.1272 13.5929 31.1933 14.0706 31.3338C14.3671 31.4247 14.6801 31.5486 14.8202 31.7965C14.9272 31.9948 14.9355 32.251 14.886 32.4576C14.8449 32.6311 14.6801 32.9616 14.4742 33.0442C14.4742 33.0442 12.0774 34.011 12.0692 34.011C11.5667 34.2093 11.4432 34.796 11.6079 35.1844C11.6903 35.3744 11.8468 35.6223 12.0445 35.7545C12.2751 35.9198 12.654 35.9859 12.934 36.0768C13.2305 36.1759 13.527 36.2833 13.8235 36.3825C14.0459 36.4569 14.2683 36.5395 14.4989 36.6138C14.8449 36.7213 15.0343 36.7956 15.2073 37.0931C15.3885 37.3988 15.4461 37.7459 15.4132 38.0847C15.3638 38.5804 14.9849 38.9605 14.4825 39.2249C13.8894 39.5307 13.1399 39.8034 12.6622 40.233C12.2668 40.5801 12.1927 41.1998 12.4975 41.5964C12.9175 42.1418 14.0047 42.1748 14.6225 42.5136C14.9602 42.6954 15.2402 43.0342 15.2896 43.373C15.3308 43.6374 15.2896 43.877 15.1414 44.1166C14.9108 44.5215 14.3754 44.6537 13.9224 44.819C13.2717 45.0586 12.5139 45.1495 12.4398 45.8436C12.3904 46.3642 12.8599 46.769 13.3129 47.0748C13.7329 47.364 14.1777 47.6201 14.6307 47.868C15.0755 48.1076 15.512 48.3473 15.9568 48.5786C16.2204 48.7191 16.5498 48.9009 16.8875 48.967V48.9918C16.8875 48.9918 16.9699 48.9835 17.0028 48.9753C17.044 48.9753 17.0852 48.9918 17.1181 48.9918V48.967C17.1181 48.967 17.1181 48.967 17.1264 48.967V27.161H17.1346Z" fill="#BCBEC0"/>
</g>
<path d="M21.9365 34.0192L19.5314 33.0524C19.3337 32.9698 19.1608 32.6393 19.1196 32.4658C19.0702 32.2592 19.0784 32.003 19.1855 31.8047C19.3255 31.5568 19.6385 31.4329 19.935 31.342C20.4045 31.2015 20.9316 31.1354 21.3105 30.838C21.5246 30.6727 21.7388 30.4413 21.8541 30.2182C21.9777 29.9703 21.8871 29.7472 21.8871 29.4993V27.1692H12.1186V29.4993C12.1186 29.739 12.028 29.9703 12.1515 30.2182C12.2668 30.4413 12.481 30.6727 12.6951 30.838C13.074 31.1354 13.5929 31.2015 14.0706 31.342C14.3671 31.4329 14.6801 31.5568 14.8202 31.8047C14.9272 32.003 14.9355 32.2592 14.886 32.4658C14.8449 32.6393 14.6801 32.9698 14.4742 33.0524C14.4742 33.0524 12.0774 34.0192 12.0692 34.0192C11.5667 34.2175 11.4432 34.8042 11.6079 35.1925C11.6903 35.3826 11.8468 35.6305 12.0445 35.7627C12.2751 35.9279 12.654 35.994 12.934 36.0849C13.2305 36.1841 13.527 36.2915 13.8235 36.3907C14.0459 36.465 14.2683 36.5477 14.4989 36.622C14.8449 36.7294 15.0343 36.8038 15.2073 37.1013C15.3885 37.407 15.4461 37.7541 15.4132 38.0928C15.3638 38.5886 14.9849 38.9687 14.4825 39.2331C13.8894 39.5389 13.1399 39.8115 12.6622 40.2412C12.2668 40.5883 12.1927 41.208 12.4975 41.6046C12.9175 42.15 14.0047 42.183 14.6225 42.5218C14.9602 42.7036 15.2402 43.0424 15.2896 43.3811C15.3308 43.6456 15.2896 43.8852 15.1414 44.1248C14.9108 44.5297 14.3754 44.6619 13.9224 44.8272C13.2717 45.0668 12.5139 45.1577 12.4398 45.8518C12.3904 46.3723 12.8599 46.7772 13.3129 47.0829C13.7329 47.3722 14.1777 47.6283 14.6307 47.8762C15.0755 48.1158 15.512 48.3554 15.9568 48.5868C16.2204 48.7273 16.5498 48.9091 16.8875 48.9752V49C16.8875 49 16.9699 48.9917 17.0028 48.9834C17.044 48.9834 17.0852 49 17.1181 49V48.9752C17.4476 48.9091 17.777 48.719 18.0489 48.5868C18.4936 48.3554 18.9302 48.1158 19.3749 47.8762C19.8362 47.6283 20.2727 47.3639 20.6928 47.0829C21.1458 46.7772 21.6152 46.3806 21.5658 45.8518C21.4917 45.1577 20.7339 45.0668 20.0833 44.8272C19.6303 44.6619 19.0866 44.5297 18.8643 44.1248C18.7242 43.8769 18.6748 43.6456 18.716 43.3811C18.7654 43.0424 19.0455 42.7118 19.3832 42.5218C20.0009 42.183 21.0963 42.15 21.5082 41.6046C21.8129 41.208 21.7388 40.5883 21.3434 40.2412C20.8657 39.8198 20.108 39.5389 19.5232 39.2331C19.0208 38.9687 18.6419 38.5886 18.5925 38.0928C18.5595 37.7541 18.6172 37.407 18.7984 37.1013C18.9713 36.8121 19.1608 36.7377 19.5067 36.622C19.7373 36.5477 19.9597 36.465 20.1821 36.3907C20.4786 36.2915 20.7751 36.1841 21.0716 36.0849C21.3434 35.994 21.7306 35.9279 21.9612 35.7627C22.1506 35.6305 22.3153 35.3826 22.3977 35.1925C22.5624 34.8042 22.4307 34.2175 21.9365 34.0192V34.0192Z" stroke="#851256" stroke-linecap="round" stroke-linejoin="round"/>
<path d="M14.4498 20.6085H7.08643V27.1611H14.4498V20.6085Z" fill="#92B6C7"/>
<path d="M26.9199 20.6085H7.08643V27.1611H26.9199V20.6085Z" stroke="#851256" stroke-linecap="round" stroke-linejoin="round"/>
<path d="M3.61046 20.9886C-0.903134 14.3452 1.80667 6.79281 1.80667 6.79281C3.01743 3.64462 5.35659 1.29793 8.80767 1.01699C11.7646 0.777366 14.2026 3.14884 17.003 3.30583C19.8034 3.14884 22.2414 0.777366 25.1983 1.01699C28.6494 1.29793 30.9885 3.63635 32.1993 6.79281C32.1993 6.79281 34.9091 14.3369 30.3955 20.9803C30.3955 20.9803 18.6173 26.2686 3.60222 20.9803L3.61046 20.9886Z" fill="#EEE6D9"/>
<path d="M3.56927 21.5091C4.48352 21.9471 5.43072 22.3024 6.40262 22.5998C6.7815 21.1538 7.47337 19.8152 8.65118 18.7493C8.09934 18.3692 7.46513 18.1213 6.94623 17.6999C6.36144 17.2206 5.96609 16.6009 5.68605 15.8986C5.03537 14.2625 4.5906 12.5025 4.65649 10.7259C4.75533 8.12311 5.61192 5.27239 8.35467 4.41304C11.0315 3.57022 13.5107 4.63614 16.0228 5.48723C17.6454 6.03258 19.4492 6.51184 21.1706 6.21437C22.3732 6.00779 23.6745 5.45418 23.7898 4.14036C22.6532 4.7353 21.1459 4.66093 19.9352 4.44609C18.9468 4.27257 17.8266 3.96684 17.0112 3.31407C14.2108 3.14881 11.781 0.785599 8.83239 1.02523C5.35659 1.2979 3.01743 3.64459 1.80667 6.79278C1.80667 6.79278 -0.903134 14.3369 3.61046 20.9803C3.61046 20.9803 3.59398 21.1703 3.56927 21.5009V21.5091Z" fill="#EBCBCA"/>
<path d="M27.2657 21.633C27.3893 21.9057 27.4964 22.1784 27.5952 22.4511C28.5589 22.1867 29.5143 21.8727 30.445 21.5174C30.4203 21.1786 30.3956 20.9885 30.3956 20.9885C31.8288 18.8815 32.5289 16.6835 32.8254 14.6674C32.7512 14.8409 32.6771 15.0144 32.5865 15.1797C31.9029 16.4522 30.8733 17.452 29.6626 18.2122C28.806 18.7493 27.9082 19.212 27.0104 19.6582C26.8045 19.7573 26.5986 19.8648 26.3844 19.9639C26.1868 20.0631 26.3844 20.1374 26.5327 20.3523C26.8045 20.7654 27.0598 21.1868 27.2657 21.633Z" fill="#EBCBCA"/>
<path d="M3.61046 20.9886C-0.903134 14.3452 1.80667 6.79281 1.80667 6.79281C3.01743 3.64462 5.35659 1.29793 8.80768 1.01699C11.7646 0.777366 14.2026 3.14884 17.003 3.30583C19.8034 3.14884 22.2414 0.777366 25.1983 1.01699C28.6494 1.29793 30.9885 3.63635 32.1993 6.79281C32.1993 6.79281 34.9091 14.3369 30.3955 20.9803C30.3955 20.9803 17.3901 26.6983 3.60222 20.9803L3.61046 20.9886Z" stroke="#851256" stroke-linecap="round" stroke-linejoin="round"/>
<path d="M15.2896 2.95874C15.2896 2.95874 22.48 5.52026 23.7402 3.76025" stroke="#851256" stroke-linecap="round" stroke-linejoin="round"/>
</svg>
