<svg width="49" height="49" viewBox="0 0 49 49" fill="none" xmlns="http://www.w3.org/2000/svg">
<path d="M24.1659 31.0707C24.2765 31.0707 24.3786 31.0707 24.4891 31.0707C24.6847 31.0707 24.8803 31.0707 25.0844 31.0876C32.4236 31.5693 31.4712 45.7409 31.4712 45.7409C31.8028 49.2986 34.8559 47.9212 34.8559 47.9212C42.1951 42.6987 40.3327 25.0455 40.3327 25.0455C45.8094 17.0597 42.5268 7.97528 42.5268 7.97528C41.0555 4.18097 38.2066 1.36693 34.0225 1.0289C30.4251 0.733134 27.4741 3.58943 24.0639 3.78379C20.6622 3.59788 17.7027 0.741585 14.1053 1.0289C9.92121 1.36693 7.07226 4.18097 5.60102 7.97528C5.60102 7.97528 2.30985 17.0512 7.79513 25.0455C7.79513 25.0455 5.93269 42.6987 13.2719 47.9212C13.2719 47.9212 16.3335 49.2986 16.6566 45.7409C16.6566 45.7409 15.7127 31.5693 23.0434 31.0876C23.4091 31.0623 23.7747 31.0707 24.1404 31.0707H24.1659Z" fill="#EEE6D9"/>
<path d="M19.7263 32.6509C19.5903 32.7101 19.4627 32.7861 19.3351 32.8537C17.2346 34.0875 16.9454 36.2509 16.4096 38.4142C16.1035 39.6311 15.049 43.9916 13.0164 42.0142C11.8258 40.8564 11.5197 38.955 11.2815 37.3917C11.0179 35.6847 10.8053 33.9439 10.7373 32.2199C10.5927 28.6369 11.1455 24.8595 13.9349 22.3497C13.263 21.8933 12.4892 21.5976 11.8598 21.0821C11.154 20.5074 10.6692 19.7553 10.3291 18.9187C9.52965 16.9497 8.99387 14.8371 9.07892 12.6991C9.19798 9.56394 10.2355 6.14145 13.5607 5.11048C16.8093 4.09641 19.8284 5.3809 22.8729 6.39497C24.8374 7.04566 27.0315 7.62875 29.1236 7.26538C30.5778 7.01186 32.1596 6.35272 32.2957 4.76401C30.918 5.48231 29.0811 5.3978 27.6098 5.13583C26.4107 4.92457 25.05 4.56119 24.0635 3.77529C20.6703 3.57247 17.7193 0.73308 14.1305 1.0204C9.94636 1.35842 7.09741 4.17247 5.62616 7.96678C5.62616 7.96678 2.33499 17.0427 7.82028 25.0369C7.82028 25.0369 5.95783 42.6902 13.2971 47.9127C13.2971 47.9127 16.3586 49.2901 16.6818 45.7324C16.6818 45.7324 16.061 36.4283 19.7263 32.6425V32.6509Z" fill="#EBCBCA"/>
<path d="M43.2924 17.4483C43.2073 17.6596 43.1138 17.8624 43.0032 18.0652C42.1698 19.5947 40.9197 20.7947 39.4484 21.7158C38.4109 22.3665 37.3224 22.9158 36.2253 23.4482C35.9702 23.575 35.7235 23.6933 35.4684 23.82C35.2218 23.9383 35.4684 24.0228 35.647 24.2848C35.9787 24.775 36.2933 25.2904 36.54 25.8228C37.4839 27.8848 37.8411 30.1073 37.9517 32.3551C38.0707 34.7551 38.2833 37.2987 37.7901 39.6733C37.5605 40.7972 37.2033 41.8705 36.6845 42.893C36.3699 43.5014 35.9957 44.2282 35.3834 44.6C34.8731 44.9127 34.0907 45.1324 33.5805 44.6845C33.0447 44.2197 33.0022 43.5183 32.9171 42.8592C32.713 41.3127 32.4239 39.7409 32.0667 38.2198C31.718 36.7156 31.2588 35.0593 30.2127 33.8678C29.694 33.2762 29.0987 32.8875 28.4438 32.6509C32.1007 36.4452 31.4799 45.7324 31.4799 45.7324C31.8116 49.2901 34.8646 47.9126 34.8646 47.9126C42.2038 42.6902 40.3414 25.0369 40.3414 25.0369C42.0763 22.5017 42.9352 19.8652 43.2924 17.4314V17.4483Z" fill="#EBCBCA"/>
<path d="M24.1659 31.0707C24.2765 31.0707 24.3786 31.0707 24.4891 31.0707C24.6847 31.0707 24.8803 31.0707 25.0844 31.0876C32.4236 31.5693 31.4712 45.7409 31.4712 45.7409C31.8028 49.2986 34.8559 47.9212 34.8559 47.9212C42.1951 42.6987 40.3327 25.0455 40.3327 25.0455C45.8094 17.0597 42.5268 7.97528 42.5268 7.97528C41.0555 4.18097 38.2066 1.36693 34.0225 1.0289C30.4251 0.733134 27.4741 3.58943 24.0639 3.78379C20.6622 3.59788 17.7027 0.741585 14.1053 1.0289C9.92121 1.36693 7.07226 4.18097 5.60102 7.97528C5.60102 7.97528 2.30985 17.0512 7.79513 25.0455C7.79513 25.0455 5.93269 42.6987 13.2719 47.9212C13.2719 47.9212 16.3335 49.2986 16.6566 45.7409C16.6566 45.7409 15.7127 31.5693 23.0434 31.0876C23.4091 31.0623 23.7747 31.0707 24.1404 31.0707H24.1659Z" stroke="#851256" stroke-linecap="round" stroke-linejoin="round"/>
<path d="M21.9888 3.36975C21.9888 3.36975 30.7142 6.45421 32.2535 4.33312" stroke="#851256" stroke-linecap="round" stroke-linejoin="round"/>
<path d="M21.0191 17.8541H27.1337C27.9417 17.8541 28.5965 18.5048 28.5965 19.3076V23.7611C28.5965 24.5639 27.9417 25.2146 27.1337 25.2146H21.0191C20.2112 25.2146 19.5564 24.5639 19.5564 23.7611V19.3076C19.5564 18.5048 20.2112 17.8541 21.0191 17.8541V17.8541Z" stroke="#851256" stroke-linecap="round" stroke-linejoin="round"/>
<path d="M25.586 17.4399V19.4596H22.5585V17.4399H20.0242V19.4596V20.3385V21.2173H28.1203V20.3385V19.4596V17.4399H25.586Z" fill="#92B6C7"/>
<g style="mix-blend-mode:multiply" opacity="0.5">
<path d="M26.8957 17.4399V18.8512V19.4596V20.0681H21.2573V19.4596V18.8512V17.4399H20.0242V19.4596V20.3385V21.2173H28.1203V20.3385V19.4596V17.4399H26.8957Z" fill="#92B6C7"/>
</g>
<path d="M22.5585 25.6202V23.592H25.586V25.6202H28.1203V23.592V22.7216V21.8428H20.0242V22.7216V23.592V25.6202H22.5585Z" fill="#92B6C7"/>
<g style="mix-blend-mode:multiply" opacity="0.5">
<path d="M21.2573 25.6202V24.2089V23.6005V22.9921H26.8957V23.6005V24.2089V25.6202H28.1203V23.592V22.7216V21.8428H20.0242V22.7216V23.592V25.6202H21.2573Z" fill="#92B6C7"/>
</g>
<path d="M1 21.5302H47.1529" stroke="#A0B4BF" stroke-width="2" stroke-linecap="round" stroke-linejoin="round"/>
</svg>
