<svg width="24" height="20" viewBox="0 0 24 20" fill="none" xmlns="http://www.w3.org/2000/svg">
<path d="M24 2.67275C23.1013 3.06468 22.148 3.32193 21.1719 3.43597C22.1887 2.8361 22.9693 1.88619 23.3369 0.754378C22.3704 1.31898 21.3129 1.71677 20.2103 1.93058C19.312 0.988603 18.0324 0.399902 16.6162 0.399902C13.8968 0.399902 11.6921 2.57013 11.6921 5.24683C11.6921 5.62678 11.7357 5.99666 11.8196 6.35151C7.72744 6.14931 4.09931 4.21967 1.67072 1.28715C1.24697 2.00302 1.00416 2.83573 1.00416 3.72391C1.00416 5.40556 1.8735 6.88908 3.19462 7.75834C2.4127 7.73423 1.64798 7.52634 0.964313 7.15201C0.964031 7.17231 0.964031 7.19262 0.964031 7.21301C0.964031 9.56145 2.66128 11.5205 4.91372 11.9658C4.18864 12.1599 3.42809 12.1883 2.69016 12.0489C3.31669 13.9745 5.13516 15.3758 7.28972 15.415C5.60456 16.715 3.48141 17.4899 1.17459 17.4899C0.777094 17.4899 0.385219 17.467 0 17.4222C2.17903 18.7975 4.76719 19.5999 7.54781 19.5999C16.6047 19.5999 21.5573 12.2141 21.5573 5.80895C21.5573 5.59872 21.5526 5.38969 21.543 5.18186C22.507 4.49587 23.339 3.64621 24 2.67275Z" fill="white"/>
</svg>
