<svg width="41" height="49" viewBox="0 0 41 49" fill="none" xmlns="http://www.w3.org/2000/svg">
<g clip-path="url(#clip0_1_1569)">
<path d="M20.5929 31.1355C20.7059 31.1355 20.8189 31.1355 20.932 31.1355C21.138 31.1355 21.3441 31.1355 21.5435 31.1486C29.1612 31.6444 28.1774 46.1683 28.1774 46.1683C28.5164 49.8156 31.6938 48.4062 31.6938 48.4062C39.3115 43.056 37.3838 24.9632 37.3838 24.9632C43.0738 16.7748 39.6571 7.47068 39.6571 7.47068C38.1349 3.582 35.1769 0.698108 30.8363 0.345778C27.1072 0.0456444 24.0362 2.97521 20.5065 3.17094C16.9636 2.97521 13.8992 0.052169 10.1701 0.345778C5.82949 0.698108 2.87148 3.582 1.34927 7.47068C1.34927 7.47068 -2.06075 16.7748 3.62261 24.9632C3.62261 24.9632 1.69492 43.056 9.30598 48.4062C9.30598 48.4062 12.4833 49.8156 12.8224 46.1683C12.8224 46.1683 11.8386 31.6444 19.4563 31.1486C19.8352 31.1225 20.2141 31.129 20.5929 31.1355Z" fill="#EEE6D9"/>
<path d="M15.9864 32.7537C15.8468 32.819 15.7072 32.8907 15.5743 32.969C13.394 34.2348 13.1015 36.4532 12.5365 38.6716C12.2175 39.9243 11.1273 44.3937 9.0135 42.358C7.77712 41.1705 7.45806 39.2262 7.21211 37.6211C6.93957 35.8725 6.72022 34.0913 6.6471 32.3231C6.49421 28.6497 7.06587 24.7806 9.96406 22.2034C9.2661 21.7336 8.46843 21.427 7.81036 20.905C7.07252 20.3178 6.57398 19.5479 6.22167 18.6801C5.39742 16.6574 4.83905 14.4913 4.91882 12.299C5.04512 9.08235 6.11532 5.57862 9.57187 4.52163C12.942 3.48421 16.0728 4.80219 19.2369 5.83961C21.2776 6.51164 23.551 7.10538 25.7179 6.73348C27.2269 6.4725 28.8754 5.80046 29.015 4.17582C27.5792 4.91311 25.6847 4.82176 24.1559 4.55425C22.9128 4.33894 21.497 3.96704 20.4733 3.15798C16.9503 2.96224 13.8926 0.0522556 10.1701 0.345864C5.82949 0.698194 2.87148 3.58208 1.34927 7.47076C1.34927 7.47076 -2.06075 16.7749 3.62261 24.9633C3.62261 24.9633 1.69492 43.0561 9.30598 48.4063C9.30598 48.4063 12.4833 49.8156 12.8224 46.1684C12.8224 46.1684 12.1776 36.6359 15.9798 32.7537H15.9864Z" fill="#EBCBCA"/>
<path d="M40.4416 17.1728C40.3485 17.3881 40.2554 17.5969 40.1358 17.8057C39.2783 19.3716 37.9754 20.5982 36.4532 21.5443C35.3764 22.2098 34.2464 22.7709 33.1097 23.3255C32.8504 23.4495 32.5845 23.58 32.3253 23.7039C32.0727 23.8279 32.3253 23.9127 32.5114 24.1802C32.8504 24.6826 33.1761 25.2046 33.4354 25.7592C34.4192 27.8667 34.7848 30.1503 34.8978 32.4535C35.0241 34.9133 35.2368 37.5231 34.7316 39.9503C34.4923 41.1051 34.1267 42.2013 33.5816 43.2517C33.2559 43.8781 32.8637 44.6219 32.2322 45.0003C31.7005 45.3201 30.8895 45.5484 30.3577 45.0852C29.806 44.6089 29.7595 43.8912 29.6664 43.2191C29.4604 41.6336 29.1479 40.0221 28.7823 38.4627C28.4167 36.9163 27.9448 35.2199 26.8547 33.9998C26.3162 33.3995 25.698 32.995 25.02 32.7536C28.8156 36.6423 28.1708 46.1617 28.1708 46.1617C28.5098 49.809 31.6872 48.3997 31.6872 48.3997C39.3049 43.0495 37.3772 24.9567 37.3772 24.9567C39.1786 22.3599 40.0693 19.6521 40.4416 17.1663V17.1728Z" fill="#EBCBCA"/>
<path d="M20.5929 31.1355C20.7059 31.1355 20.8189 31.1355 20.932 31.1355C21.138 31.1355 21.3441 31.1355 21.5435 31.1486C29.1612 31.6444 28.1774 46.1683 28.1774 46.1683C28.5164 49.8156 31.6938 48.4062 31.6938 48.4062C39.3115 43.056 37.3838 24.9632 37.3838 24.9632C43.0738 16.7748 39.6571 7.47068 39.6571 7.47068C38.1349 3.582 35.1769 0.698108 30.8363 0.345778C27.1072 0.0456444 24.0362 2.97521 20.5065 3.17094C16.9636 2.97521 13.8992 0.052169 10.1701 0.345778C5.82949 0.698108 2.87148 3.582 1.34927 7.47068C1.34927 7.47068 -2.06075 16.7748 3.62261 24.9632C3.62261 24.9632 1.69492 43.056 9.30598 48.4062C9.30598 48.4062 12.4833 49.8156 12.8224 46.1683C12.8224 46.1683 11.8386 31.6444 19.4563 31.1486C19.8352 31.1225 20.2141 31.129 20.5929 31.1355V31.1355Z" stroke="#851256" stroke-linecap="round" stroke-linejoin="round"/>
<path d="M18.333 2.74683C18.333 2.74683 27.3932 5.90475 28.9818 3.73205" stroke="#851256" stroke-linecap="round" stroke-linejoin="round"/>
</g>
<defs>
<clipPath id="clip0_1_1569">
<rect width="41" height="49" fill="white"/>
</clipPath>
</defs>
</svg>
