<svg width="44" height="51" viewBox="0 0 44 51" fill="none" xmlns="http://www.w3.org/2000/svg">
<path d="M22.1577 32.2274C22.2737 32.2274 22.3897 32.2274 22.5081 32.2274C22.7199 32.2274 22.9342 32.2274 23.146 32.2395C31.0496 32.742 30.0285 47.464 30.0285 47.464C30.3815 51.1578 33.6765 49.7277 33.6765 49.7277C41.5852 44.3065 39.5809 25.968 39.5809 25.968C45.4853 17.6696 41.9431 8.24057 41.9431 8.24057C40.3599 4.29794 37.2943 1.37478 32.7866 1.02207C28.9142 0.720086 25.7326 3.68431 22.0619 3.88483C18.3937 3.68673 15.2096 0.720086 11.3398 1.02207C6.82954 1.37478 3.76391 4.30035 2.18067 8.24057C2.18067 8.24057 -1.36145 17.6696 4.54292 25.968C4.54292 25.968 2.53866 44.3065 10.4473 49.7277C10.4473 49.7277 13.7423 51.1578 14.0953 47.464C14.0953 47.464 13.0743 32.7444 20.9778 32.2395C21.3711 32.2153 21.7644 32.2225 22.1602 32.225L22.1577 32.2274Z" fill="white"/>
<path d="M17.3729 33.8673C17.2266 33.935 17.0855 34.0026 16.9468 34.0823C14.6854 35.3627 14.3778 37.6119 13.7955 39.8586C13.4677 41.1269 12.3332 45.6542 10.1399 43.5983C8.85918 42.3952 8.52387 40.4263 8.26924 38.8005C7.9894 37.0272 7.75494 35.2202 7.68183 33.4276C7.523 29.7048 8.11798 25.7839 11.1256 23.1748C10.4046 22.6989 9.57012 22.3897 8.89195 21.8606C8.12806 21.2663 7.60872 20.4836 7.24317 19.6091C6.386 17.5604 5.80615 15.3645 5.89187 13.1443C6.02044 9.88776 7.13728 6.33649 10.7248 5.25903C14.224 4.21056 17.4737 5.5441 20.7587 6.59499C22.8789 7.27384 25.2386 7.88021 27.49 7.50334C29.0581 7.24243 30.7648 6.55633 30.9085 4.90873C29.4211 5.65281 27.4496 5.56342 25.8639 5.29527C24.5706 5.07543 23.1058 4.69856 22.0419 3.882C18.3838 3.67183 15.2047 0.719679 11.3424 1.02166C6.83223 1.37437 3.7666 4.29994 2.18336 8.24017C2.18336 8.24017 -1.35876 17.6692 4.54561 25.9675C4.54561 25.9675 2.54135 44.3061 10.45 49.7273C10.45 49.7273 13.745 51.1574 14.098 47.4636C14.098 47.4636 13.4274 37.8027 17.3779 33.8649L17.3729 33.8673Z" fill="#CDE5F2"/>
<path d="M42.7599 18.0751C42.6666 18.295 42.5633 18.51 42.4448 18.7202C41.5523 20.3074 40.201 21.5515 38.6178 22.5106C37.5035 23.187 36.3286 23.7572 35.1463 24.3152C34.874 24.4433 34.6017 24.5713 34.332 24.6994C34.0672 24.825 34.337 24.912 34.5261 25.1801C34.8815 25.6923 35.2169 26.2213 35.4866 26.7818C36.5076 28.9174 36.8858 31.2294 37.0068 33.5631C37.1354 36.0586 37.3623 38.6991 36.8354 41.1633C36.5858 42.3325 36.2051 43.4462 35.6404 44.5092C35.3026 45.1421 34.8967 45.8959 34.2387 46.2824C33.6891 46.6061 32.8445 46.8356 32.2899 46.3718C31.7151 45.8886 31.6672 45.1639 31.5739 44.4778C31.3571 42.8737 31.0394 41.2382 30.6587 39.6582C30.2806 38.0927 29.7864 36.3751 28.6595 35.1358C28.1024 34.5245 27.457 34.1163 26.7561 33.8699C30.6991 37.8101 30.0285 47.4613 30.0285 47.4613C30.3814 51.1551 33.6765 49.725 33.6765 49.725C41.5851 44.3038 39.5808 25.9653 39.5808 25.9653C41.454 23.3344 42.3717 20.59 42.7599 18.0703V18.0751Z" fill="#CDE5F2"/>
<path d="M22.1577 32.2274C22.2737 32.2274 22.3896 32.2274 22.5081 32.2274C22.7199 32.2274 22.9342 32.2274 23.146 32.2395C31.0496 32.742 30.0285 47.464 30.0285 47.464C30.3815 51.1578 33.6765 49.7277 33.6765 49.7277C41.5852 44.3065 39.5809 25.968 39.5809 25.968C45.4853 17.6696 41.9431 8.24057 41.9431 8.24057C40.3599 4.29794 37.2943 1.37478 32.7866 1.02207C28.9142 0.720086 25.7326 3.68431 22.0619 3.88483C18.3937 3.68673 15.2096 0.720086 11.3398 1.02207C6.82954 1.37478 3.76391 4.30035 2.18067 8.24057C2.18067 8.24057 -1.36145 17.6696 4.54292 25.968C4.54292 25.968 2.53866 44.3065 10.4473 49.7277C10.4473 49.7277 13.7423 51.1578 14.0953 47.464C14.0953 47.464 13.0743 32.7444 20.9778 32.2395C21.3711 32.2153 21.7644 32.2226 22.1602 32.225L22.1577 32.2274Z" stroke="#851256" stroke-linecap="round" stroke-linejoin="round"/>
<path d="M19.8132 3.45447C19.8132 3.45447 29.2143 6.65545 30.8682 4.45462" stroke="#851256" stroke-linecap="round" stroke-linejoin="round"/>
</svg>
